<svg id="visual" viewBox="0 0 600 900" width="600" height="900" xmlns="http://www.w3.org/2000/svg" xmlns:xlink="http://www.w3.org/1999/xlink" version="1.1"><rect x="0" y="0" width="600" height="900" fill="#0f324c"></rect><defs><linearGradient id="grad1_0" x1="0%" y1="100%" x2="100%" y2="0%"><stop offset="30%" stop-color="#0f324c" stop-opacity="1"></stop><stop offset="70%" stop-color="#0f324c" stop-opacity="1"></stop></linearGradient></defs><defs><linearGradient id="grad2_0" x1="0%" y1="100%" x2="100%" y2="0%"><stop offset="30%" stop-color="#0f324c" stop-opacity="1"></stop><stop offset="70%" stop-color="#0f324c" stop-opacity="1"></stop></linearGradient></defs><g transform="translate(600, 900)"><path d="M-270.4 0C-224.1 -24.4 -177.8 -48.8 -161.1 -93C-144.3 -137.2 -157.1 -201.3 -135.2 -234.2C-113.3 -267.1 -56.6 -268.7 0 -270.4L0 0Z" fill="#e9efed"></path></g><g transform="translate(0, 0)"><path d="M270.4 0C234.7 30.5 199.1 61 181 104.5C162.9 148 162.4 204.4 135.2 234.2C108 264 54 267.2 0 270.4L0 0Z" fill="#e9efed"></path></g></svg>