<svg id="visual" viewBox="0 0 900 450" width="900" height="450" xmlns="http://www.w3.org/2000/svg" xmlns:xlink="http://www.w3.org/1999/xlink" version="1.1"><rect x="0" y="0" width="900" height="450" fill="#184C78"></rect><g transform="translate(140.17203243286377 44.39772169614105)"><path d="M383.7 -660.6C454.5 -551.5 439.6 -372.7 435.6 -240.4C431.7 -108 438.6 -22 428.2 62.8C417.9 147.5 390.3 230.9 349.3 333.3C308.2 435.7 253.7 557 156.1 631.1C58.5 705.2 -82.2 732.1 -228.7 717.3C-375.3 702.4 -527.7 645.9 -616.5 537.5C-705.2 429.1 -730.2 268.8 -716.5 125.1C-702.7 -18.6 -650.2 -145.8 -602.9 -286.1C-555.6 -426.5 -513.5 -580 -413.9 -676C-314.3 -772 -157.1 -810.5 -0.4 -810C156.4 -809.4 312.9 -769.8 383.7 -660.6" fill="#E6DFD9"></path></g></svg>


