<svg id="visual" viewBox="0 0 900 600" width="900" height="600" xmlns="http://www.w3.org/2000/svg" xmlns:xlink="http://www.w3.org/1999/xlink" version="1.1"><path d="M539 600L557 575C575 550 611 500 624.5 450C638 400 629 350 618.5 300C608 250 596 200 588.5 150C581 100 578 50 576.5 25L575 0L900 0L900 25C900 50 900 100 900 150C900 200 900 250 900 300C900 350 900 400 900 450C900 500 900 550 900 575L900 600Z" fill="#338eb1"></path><path d="M395 600L414.5 575C434 550 473 500 488 450C503 400 494 350 477.5 300C461 250 437 200 428 150C419 100 425 50 428 25L431 0L576 0L577.5 25C579 50 582 100 589.5 150C597 200 609 250 619.5 300C630 350 639 400 625.5 450C612 500 576 550 558 575L540 600Z" fill="#42aed7"></path><path d="M251 600L266 575C281 550 311 500 323 450C335 400 329 350 306.5 300C284 250 245 200 227 150C209 100 212 50 213.5 25L215 0L432 0L429 25C426 50 420 100 429 150C438 200 462 250 478.5 300C495 350 504 400 489 450C474 500 435 550 415.5 575L396 600Z" fill="#65c6ed"></path><path d="M0 600L0 575C0 550 0 500 0 450C0 400 0 350 0 300C0 250 0 200 0 150C0 100 0 50 0 25L0 0L216 0L214.5 25C213 50 210 100 228 150C246 200 285 250 307.5 300C330 350 336 400 324 450C312 500 282 550 267 575L252 600Z" fill="#8ed3f1"></path></svg>